<mxfile host="app.diagrams.net" agent="Mozilla/5.0 (Windows NT 10.0; Win64; x64) AppleWebKit/537.36 (KHTML, like Gecko) Chrome/130.0.0.0 Safari/537.36" version="24.8.9">
  <diagram name="Page-1" id="f1b7ffb7-ca1e-a977-7cf5-a751b3c06c05">
    <mxGraphModel dx="1076" dy="639" grid="1" gridSize="10" guides="1" tooltips="1" connect="1" arrows="1" fold="1" page="1" pageScale="1" pageWidth="826" pageHeight="1169" background="none" math="0" shadow="0">
      <root>
        <mxCell id="0" />
        <mxCell id="1" parent="0" />
        <mxCell id="lBzFIeIKcv9HpjgelgzR-109" value="&lt;span style=&quot;color: rgba(0, 0, 0, 0); font-family: monospace; font-size: 0px; text-align: start; text-wrap-mode: nowrap;&quot;&gt;%3CmxGraphModel%3E%3Croot%3E%3CmxCell%20id%3D%220%22%2F%3E%3CmxCell%20id%3D%221%22%20parent%3D%220%22%2F%3E%3CmxCell%20id%3D%222%22%20value%3D%22%26lt%3Bfont%20color%3D%26quot%3B%23ffffff%26quot%3B%26gt%3BBreakfast%26lt%3B%2Ffont%26gt%3B%22%20style%3D%22text%3Bhtml%3D1%3Balign%3Dleft%3BverticalAlign%3Dmiddle%3BwhiteSpace%3Dwrap%3Brounded%3D0%3BfontSize%3D16%3B%22%20vertex%3D%221%22%20parent%3D%221%22%3E%3CmxGeometry%20x%3D%2227.5%22%20y%3D%22165%22%20width%3D%2275%22%20height%3D%2230%22%20as%3D%22geometry%22%2F%3E%3C%2FmxCell%3E%3C%2Froot%3E%3C%2FmxGraphModel%3E&lt;/span&gt;" style="rounded=0;whiteSpace=wrap;html=1;fillColor=#080707;gradientColor=default;gradientDirection=radial;strokeColor=none;" vertex="1" parent="1">
          <mxGeometry y="10" width="820" height="540" as="geometry" />
        </mxCell>
        <mxCell id="2" value="DesiDietPro&#xa;" style="text;spacingTop=-5;fontSize=18;fontStyle=0;fillColor=none;strokeColor=none;fontColor=#424242;" parent="1" vertex="1">
          <mxGeometry x="70" y="25" width="230" height="20" as="geometry" />
        </mxCell>
        <mxCell id="3" value="" style="line;strokeWidth=1;strokeColor=#FFFFFF;" parent="1" vertex="1">
          <mxGeometry x="23" y="55" width="780" height="10" as="geometry" />
        </mxCell>
        <mxCell id="4" value="" style="line;strokeWidth=1;strokeColor=#FFFFFF;" parent="1" vertex="1">
          <mxGeometry x="20" y="90" width="780" height="10" as="geometry" />
        </mxCell>
        <mxCell id="20" value="" style="verticalLabelPosition=bottom;verticalAlign=top;strokeWidth=1;shape=mxgraph.mockup.graphics.iconGrid;strokeColor=#CCCCCC;gridSize=1,1;" parent="1" vertex="1">
          <mxGeometry x="20" y="15" width="40" height="40" as="geometry" />
        </mxCell>
        <mxCell id="21" value="Blog &#xa;Logo" style="text;spacingTop=-5;align=center" parent="1" vertex="1">
          <mxGeometry x="20" y="20" width="40" height="40" as="geometry" />
        </mxCell>
        <mxCell id="27" value="" style="verticalLabelPosition=bottom;verticalAlign=top;strokeWidth=1;shape=mxgraph.mockup.graphics.iconGrid;strokeColor=#CCCCCC;gridSize=1,1;" parent="1" vertex="1">
          <mxGeometry x="20" y="620" width="570" height="480" as="geometry" />
        </mxCell>
        <mxCell id="28" value="Article 2" style="text;spacingTop=-5;" parent="1" vertex="1">
          <mxGeometry x="20" y="620" width="30" height="20" as="geometry" />
        </mxCell>
        <mxCell id="29" value="Lorem ipsum dolor sit amet, consectetur adipisicing elit, sed do eiusmod tempor incididunt ut labore et dolore magna aliqua. Ut enim ad minim veniam, quis nostrud exercitation ullamco laboris nisi ut aliquip ex ea commodo consequat. Duis aute irure dolor in reprehenderit in voluptate velit esse cillum dolore eu fugiat nulla pariatur. Excepteur sint occaecat cupidatat non proident, sunt in culpa qui officia deserunt mollit anim id est laborum.&#xa;Sed ut perspiciatis unde omnis iste natus error sit voluptatem accusantium doloremque laudantium, totam rem aperiam, eaque ipsa quae ab illo inventore veritatis et quasi architecto beatae vitae dicta sunt explicabo. Nemo enim ipsam voluptatem quia voluptas sit aspernatur aut odit aut fugit, sed quia consequuntur magni dolores eos qui ratione voluptatem sequi nesciunt. Neque porro quisquam est, qui dolorem ipsum quia dolor sit amet, consectetur, adipisci velit, sed quia non numquam eius modi tempora incidunt ut labore et dolore magnam aliquam quaerat voluptatem. Ut enim ad minima veniam, quis nostrum exercitationem ullam corporis suscipit laboriosam, nisi ut aliquid ex ea commodi consequatur? Quis autem vel eum iure reprehenderit qui in ea voluptate velit esse quam nihil molestiae consequatur, vel illum qui dolorem eum fugiat quo voluptas nulla pariatur?" style="text;spacingTop=-5;whiteSpace=wrap;align=left" parent="1" vertex="1">
          <mxGeometry x="20" y="650" width="530" height="250" as="geometry" />
        </mxCell>
        <mxCell id="30" value="" style="verticalLabelPosition=bottom;verticalAlign=top;strokeWidth=1;shape=mxgraph.mockup.graphics.iconGrid;strokeColor=#CCCCCC;gridSize=1,1;" parent="1" vertex="1">
          <mxGeometry x="100" y="870" width="360" height="200" as="geometry" />
        </mxCell>
        <mxCell id="31" value="Article&#xa;Picture" style="text;spacingTop=-5;align=center;verticalAlign=middle;fontSize=36;fontColor=#CCCCCC" parent="1" vertex="1">
          <mxGeometry x="100" y="870" width="360" height="200" as="geometry" />
        </mxCell>
        <mxCell id="32" value="" style="verticalLabelPosition=bottom;verticalAlign=top;strokeWidth=1;shape=mxgraph.mockup.graphics.iconGrid;strokeColor=#CCCCCC;gridSize=1,1;" parent="1" vertex="1">
          <mxGeometry x="20" y="1120" width="570" height="480" as="geometry" />
        </mxCell>
        <mxCell id="33" value="Article 3" style="text;spacingTop=-5;" parent="1" vertex="1">
          <mxGeometry x="20" y="1120" width="30" height="20" as="geometry" />
        </mxCell>
        <mxCell id="34" value="Lorem ipsum dolor sit amet, consectetur adipisicing elit, sed do eiusmod tempor incididunt ut labore et dolore magna aliqua. Ut enim ad minim veniam, quis nostrud exercitation ullamco laboris nisi ut aliquip ex ea commodo consequat. Duis aute irure dolor in reprehenderit in voluptate velit esse cillum dolore eu fugiat nulla pariatur. Excepteur sint occaecat cupidatat non proident, sunt in culpa qui officia deserunt mollit anim id est laborum.&#xa;Sed ut perspiciatis unde omnis iste natus error sit voluptatem accusantium doloremque laudantium, totam rem aperiam, eaque ipsa quae ab illo inventore veritatis et quasi architecto beatae vitae dicta sunt explicabo. Nemo enim ipsam voluptatem quia voluptas sit aspernatur aut odit aut fugit, sed quia consequuntur magni dolores eos qui ratione voluptatem sequi nesciunt. Neque porro quisquam est, qui dolorem ipsum quia dolor sit amet, consectetur, adipisci velit, sed quia non numquam eius modi tempora incidunt ut labore et dolore magnam aliquam quaerat voluptatem. Ut enim ad minima veniam, quis nostrum exercitationem ullam corporis suscipit laboriosam, nisi ut aliquid ex ea commodi consequatur? Quis autem vel eum iure reprehenderit qui in ea voluptate velit esse quam nihil molestiae consequatur, vel illum qui dolorem eum fugiat quo voluptas nulla pariatur?" style="text;spacingTop=-5;whiteSpace=wrap;align=left" parent="1" vertex="1">
          <mxGeometry x="20" y="1150" width="530" height="250" as="geometry" />
        </mxCell>
        <mxCell id="35" value="" style="verticalLabelPosition=bottom;verticalAlign=top;strokeWidth=1;shape=mxgraph.mockup.graphics.iconGrid;strokeColor=#CCCCCC;gridSize=1,1;" parent="1" vertex="1">
          <mxGeometry x="100" y="1370" width="360" height="200" as="geometry" />
        </mxCell>
        <mxCell id="36" value="Article&#xa;Picture" style="text;spacingTop=-5;align=center;verticalAlign=middle;fontSize=36;fontColor=#CCCCCC" parent="1" vertex="1">
          <mxGeometry x="100" y="1370" width="360" height="200" as="geometry" />
        </mxCell>
        <mxCell id="37" value="" style="verticalLabelPosition=bottom;verticalAlign=top;strokeWidth=1;shape=mxgraph.mockup.misc.rating;strokeColor=#999999;fillColor=#ffff00;emptyFillColor=#ffffff;grade=4;ratingScale=5;ratingStyle=star;" parent="1" vertex="1">
          <mxGeometry x="510.00000000000006" y="585.0000000000002" width="77.5" height="10" as="geometry" />
        </mxCell>
        <mxCell id="38" value="Rate this article" style="text;spacingTop=-5;" parent="1" vertex="1">
          <mxGeometry x="410.0000000000001" y="580.0000000000001" width="30" height="20" as="geometry" />
        </mxCell>
        <mxCell id="41" value="" style="verticalLabelPosition=bottom;verticalAlign=top;strokeWidth=1;shape=mxgraph.mockup.misc.rating;strokeColor=#999999;fillColor=#ffff00;emptyFillColor=#ffffff;grade=4;ratingScale=5;ratingStyle=star;" parent="1" vertex="1">
          <mxGeometry x="509.99999999999994" y="1085" width="77.5" height="10" as="geometry" />
        </mxCell>
        <mxCell id="42" value="Rate this article" style="text;spacingTop=-5;" parent="1" vertex="1">
          <mxGeometry x="410.00000000000006" y="1080" width="30" height="20" as="geometry" />
        </mxCell>
        <mxCell id="43" value="" style="verticalLabelPosition=bottom;verticalAlign=top;strokeWidth=1;shape=mxgraph.mockup.misc.rating;strokeColor=#999999;fillColor=#ffff00;emptyFillColor=#ffffff;grade=4;ratingScale=5;ratingStyle=star;" parent="1" vertex="1">
          <mxGeometry x="510.0000000000001" y="1584.9999999999998" width="77.5" height="10" as="geometry" />
        </mxCell>
        <mxCell id="44" value="Rate this article" style="text;spacingTop=-5;" parent="1" vertex="1">
          <mxGeometry x="410.00000000000017" y="1579.9999999999998" width="30" height="20" as="geometry" />
        </mxCell>
        <mxCell id="47" value="Tags: Tag1 Tag2 Tag3 Tag4" style="text;spacingTop=-5;" parent="1" vertex="1">
          <mxGeometry x="20" y="580.0000000000002" width="210" height="20" as="geometry" />
        </mxCell>
        <mxCell id="48" value="Tags: Tag1 Tag2 Tag3 Tag4" style="text;spacingTop=-5;" parent="1" vertex="1">
          <mxGeometry x="20" y="1080" width="210" height="20" as="geometry" />
        </mxCell>
        <mxCell id="49" value="Tags: Tag1 Tag2 Tag3 Tag4" style="text;spacingTop=-5;" parent="1" vertex="1">
          <mxGeometry x="20" y="1579.9999999999998" width="210" height="20" as="geometry" />
        </mxCell>
        <mxCell id="50" value="" style="verticalLabelPosition=bottom;verticalAlign=top;strokeWidth=1;shape=mxgraph.mockup.graphics.iconGrid;strokeColor=#CCCCCC;gridSize=1,1;" parent="1" vertex="1">
          <mxGeometry x="600" y="590" width="200" height="150" as="geometry" />
        </mxCell>
        <mxCell id="51" value="Me on Twitter" style="text;spacingTop=-5;" parent="1" vertex="1">
          <mxGeometry x="610" y="570" width="30" height="20" as="geometry" />
        </mxCell>
        <mxCell id="52" value="Lorem ipsum dolor sit amet, consectetur adipisicing elit" style="text;spacingTop=-5;whiteSpace=wrap;align=left" parent="1" vertex="1">
          <mxGeometry x="610" y="600" width="190" height="40" as="geometry" />
        </mxCell>
        <mxCell id="54" value="Yesterday" style="text;spacingTop=-5;fontStyle=0;align=right" parent="1" vertex="1">
          <mxGeometry x="760" y="640" width="30" height="20" as="geometry" />
        </mxCell>
        <mxCell id="58" value="" style="verticalLabelPosition=bottom;verticalAlign=top;strokeWidth=1;shape=mxgraph.mockup.graphics.iconGrid;strokeColor=#CCCCCC;gridSize=1,1;" parent="1" vertex="1">
          <mxGeometry x="600" y="760" width="200" height="200" as="geometry" />
        </mxCell>
        <mxCell id="59" value="Tag Cloud" style="text;spacingTop=-5;align=center;verticalAlign=middle;fontSize=36;fontColor=#CCCCCC" parent="1" vertex="1">
          <mxGeometry x="600" y="760" width="200" height="200" as="geometry" />
        </mxCell>
        <mxCell id="60" value="Lorem ipsum dolor sit amet, consectetur adipisicing elit" style="text;spacingTop=-5;whiteSpace=wrap;align=left" parent="1" vertex="1">
          <mxGeometry x="610" y="670" width="190" height="40" as="geometry" />
        </mxCell>
        <mxCell id="61" value="1 Week ago" style="text;spacingTop=-5;fontStyle=0;align=right" parent="1" vertex="1">
          <mxGeometry x="760" y="710" width="30" height="20" as="geometry" />
        </mxCell>
        <mxCell id="lBzFIeIKcv9HpjgelgzR-68" value="&lt;font color=&quot;#3b3934&quot; style=&quot;font-size: 11px;&quot;&gt;&lt;span style=&quot;background-color: rgb(255, 193, 7);&quot;&gt;Home&lt;/span&gt;&lt;/font&gt;" style="shape=rectangle;strokeColor=#d79b00;fillColor=#ffc107;linkText=;fontSize=17;fontStyle=4;html=1;align=center;strokeWidth=0;" vertex="1" parent="1">
          <mxGeometry x="140" y="60" width="55" height="35" as="geometry" />
        </mxCell>
        <mxCell id="lBzFIeIKcv9HpjgelgzR-94" value="" style="swimlane;shape=mxgraph.bootstrap.anchor;strokeColor=#d79b00;fillColor=#ffe6cc;fontStyle=0;childLayout=stackLayout;horizontal=1;startSize=0;horizontalStack=0;resizeParent=1;resizeParentMax=0;resizeLast=0;collapsible=0;marginBottom=0;whiteSpace=wrap;html=1;" vertex="1" parent="1">
          <mxGeometry x="820" y="80" width="120" height="200" as="geometry" />
        </mxCell>
        <mxCell id="lBzFIeIKcv9HpjgelgzR-95" value="Login" style="text;strokeColor=#d98a3e;align=center;verticalAlign=middle;spacingLeft=10;spacingRight=10;overflow=hidden;points=[[0,0.5],[1,0.5]];portConstraint=eastwest;rotatable=0;whiteSpace=wrap;html=1;shape=mxgraph.mockup.topButton;rSize=10;fillColor=#b45900;fontColor=#ffffff;fontSize=17;fontStyle=1;" vertex="1" parent="lBzFIeIKcv9HpjgelgzR-94">
          <mxGeometry width="120" height="50" as="geometry" />
        </mxCell>
        <mxCell id="lBzFIeIKcv9HpjgelgzR-96" value="Saved" style="text;strokeColor=inherit;align=center;verticalAlign=middle;spacingLeft=10;spacingRight=10;overflow=hidden;points=[[0,0.5],[1,0.5]];portConstraint=eastwest;rotatable=0;whiteSpace=wrap;html=1;rSize=5;fillColor=inherit;fontColor=inherit;fontSize=17;fontStyle=1;" vertex="1" parent="lBzFIeIKcv9HpjgelgzR-94">
          <mxGeometry y="50" width="120" height="50" as="geometry" />
        </mxCell>
        <mxCell id="lBzFIeIKcv9HpjgelgzR-97" value="Meal Plan" style="text;strokeColor=inherit;align=center;verticalAlign=middle;spacingLeft=10;spacingRight=10;overflow=hidden;points=[[0,0.5],[1,0.5]];portConstraint=eastwest;rotatable=0;whiteSpace=wrap;html=1;rSize=5;fillColor=inherit;fontColor=inherit;fontSize=17;fontStyle=1;" vertex="1" parent="lBzFIeIKcv9HpjgelgzR-94">
          <mxGeometry y="100" width="120" height="50" as="geometry" />
        </mxCell>
        <mxCell id="lBzFIeIKcv9HpjgelgzR-98" value="Sign out" style="text;strokeColor=inherit;align=center;verticalAlign=middle;spacingLeft=10;spacingRight=10;overflow=hidden;points=[[0,0.5],[1,0.5]];portConstraint=eastwest;rotatable=0;whiteSpace=wrap;html=1;shape=mxgraph.mockup.bottomButton;rSize=10;fillColor=inherit;fontColor=inherit;fontSize=17;fontStyle=1;" vertex="1" parent="lBzFIeIKcv9HpjgelgzR-94">
          <mxGeometry y="150" width="120" height="50" as="geometry" />
        </mxCell>
        <mxCell id="lBzFIeIKcv9HpjgelgzR-99" style="edgeStyle=none;curved=1;rounded=0;orthogonalLoop=1;jettySize=auto;html=1;fontSize=12;startSize=8;endSize=8;fillColor=#ffe6cc;strokeColor=#FFFFFF;exitX=0;exitY=0.5;exitDx=0;exitDy=0;entryX=0.94;entryY=0.65;entryDx=0;entryDy=0;entryPerimeter=0;" edge="1" parent="1" source="lBzFIeIKcv9HpjgelgzR-95" target="lBzFIeIKcv9HpjgelgzR-111">
          <mxGeometry relative="1" as="geometry">
            <mxPoint x="890" y="40" as="sourcePoint" />
            <mxPoint x="800" y="80" as="targetPoint" />
          </mxGeometry>
        </mxCell>
        <mxCell id="lBzFIeIKcv9HpjgelgzR-112" value="" style="edgeStyle=none;curved=1;rounded=0;orthogonalLoop=1;jettySize=auto;html=1;fontSize=12;startSize=8;endSize=8;" edge="1" parent="1" source="lBzFIeIKcv9HpjgelgzR-111" target="lBzFIeIKcv9HpjgelgzR-95">
          <mxGeometry relative="1" as="geometry" />
        </mxCell>
        <mxCell id="lBzFIeIKcv9HpjgelgzR-111" value="" style="sketch=0;pointerEvents=1;shadow=0;dashed=0;html=1;strokeColor=none;labelPosition=center;verticalLabelPosition=bottom;verticalAlign=top;align=center;fillColor=#505050;shape=mxgraph.mscae.intune.account_portal" vertex="1" parent="1">
          <mxGeometry x="773.5" y="70" width="16.5" height="20" as="geometry" />
        </mxCell>
        <mxCell id="lBzFIeIKcv9HpjgelgzR-114" value="&lt;font color=&quot;#3b3934&quot;&gt;&lt;span style=&quot;font-size: 11px; background-color: rgb(255, 193, 7);&quot;&gt;About&lt;/span&gt;&lt;/font&gt;" style="shape=rectangle;strokeColor=#d79b00;fillColor=#ffc107;linkText=;fontSize=17;fontStyle=4;html=1;align=center;strokeWidth=0;" vertex="1" parent="1">
          <mxGeometry x="232.5" y="60" width="55" height="35" as="geometry" />
        </mxCell>
        <mxCell id="lBzFIeIKcv9HpjgelgzR-116" value="&lt;font color=&quot;#3b3934&quot;&gt;&lt;span style=&quot;font-size: 11px; background-color: rgb(255, 193, 7);&quot;&gt;Features&lt;/span&gt;&lt;/font&gt;" style="shape=rectangle;strokeColor=#d79b00;fillColor=#ffc107;linkText=;fontSize=17;fontStyle=4;html=1;align=center;strokeWidth=0;" vertex="1" parent="1">
          <mxGeometry x="320" y="60" width="55" height="35" as="geometry" />
        </mxCell>
        <mxCell id="lBzFIeIKcv9HpjgelgzR-117" value="&lt;font color=&quot;#3b3934&quot;&gt;&lt;span style=&quot;font-size: 11px; background-color: rgb(255, 193, 7);&quot;&gt;Contact&lt;/span&gt;&lt;/font&gt;" style="shape=rectangle;strokeColor=#d79b00;fillColor=#ffc107;linkText=;fontSize=17;fontStyle=4;html=1;align=center;strokeWidth=0;gradientColor=#FFC107;" vertex="1" parent="1">
          <mxGeometry x="405" y="60" width="55" height="35" as="geometry" />
        </mxCell>
        <mxCell id="lBzFIeIKcv9HpjgelgzR-119" value="" style="line;strokeWidth=1;strokeColor=#FFFFFF;" vertex="1" parent="1">
          <mxGeometry x="27.5" y="185" width="205" height="10" as="geometry" />
        </mxCell>
        <mxCell id="lBzFIeIKcv9HpjgelgzR-120" value="&lt;font color=&quot;#ffffff&quot;&gt;Breakfast&lt;/font&gt;" style="text;html=1;align=left;verticalAlign=middle;whiteSpace=wrap;rounded=0;fontSize=16;" vertex="1" parent="1">
          <mxGeometry x="27.5" y="165" width="75" height="30" as="geometry" />
        </mxCell>
        <mxCell id="lBzFIeIKcv9HpjgelgzR-122" value="&lt;font color=&quot;#ffc107&quot;&gt;Add food&lt;/font&gt;" style="shape=rectangle;strokeColor=none;fillColor=none;linkText=;fontSize=17;fontColor=#0000ff;fontStyle=4;html=1;align=left;" vertex="1" parent="1">
          <mxGeometry x="25" y="195" width="80" height="30" as="geometry" />
        </mxCell>
        <mxCell id="lBzFIeIKcv9HpjgelgzR-132" value="" style="line;strokeWidth=1;strokeColor=#FFFFFF;" vertex="1" parent="1">
          <mxGeometry x="22.5" y="280" width="205" height="10" as="geometry" />
        </mxCell>
        <mxCell id="lBzFIeIKcv9HpjgelgzR-133" value="&lt;font color=&quot;#ffffff&quot;&gt;Lunch&lt;/font&gt;" style="text;html=1;align=left;verticalAlign=middle;whiteSpace=wrap;rounded=0;fontSize=16;" vertex="1" parent="1">
          <mxGeometry x="27.5" y="260" width="75" height="30" as="geometry" />
        </mxCell>
        <mxCell id="lBzFIeIKcv9HpjgelgzR-134" value="&lt;font color=&quot;#ffc107&quot;&gt;Add food&lt;/font&gt;" style="shape=rectangle;strokeColor=none;fillColor=none;linkText=;fontSize=17;fontColor=#0000ff;fontStyle=4;html=1;align=left;" vertex="1" parent="1">
          <mxGeometry x="27.5" y="290" width="80" height="30" as="geometry" />
        </mxCell>
        <mxCell id="lBzFIeIKcv9HpjgelgzR-135" value="" style="line;strokeWidth=1;strokeColor=#FFFFFF;" vertex="1" parent="1">
          <mxGeometry x="22.5" y="370" width="205" height="10" as="geometry" />
        </mxCell>
        <mxCell id="lBzFIeIKcv9HpjgelgzR-136" value="&lt;font color=&quot;#ffffff&quot;&gt;Dinner&lt;/font&gt;" style="text;html=1;align=left;verticalAlign=middle;whiteSpace=wrap;rounded=0;fontSize=16;" vertex="1" parent="1">
          <mxGeometry x="27.5" y="350" width="75" height="30" as="geometry" />
        </mxCell>
        <mxCell id="lBzFIeIKcv9HpjgelgzR-137" value="&lt;font color=&quot;#ffc107&quot;&gt;Add food&lt;/font&gt;" style="shape=rectangle;strokeColor=none;fillColor=none;linkText=;fontSize=17;fontColor=#0000ff;fontStyle=4;html=1;align=left;" vertex="1" parent="1">
          <mxGeometry x="27.5" y="380" width="80" height="30" as="geometry" />
        </mxCell>
        <mxCell id="lBzFIeIKcv9HpjgelgzR-138" value="" style="line;strokeWidth=1;strokeColor=#FFFFFF;" vertex="1" parent="1">
          <mxGeometry x="30" y="450" width="205" height="10" as="geometry" />
        </mxCell>
        <mxCell id="lBzFIeIKcv9HpjgelgzR-139" value="&lt;font color=&quot;#ffffff&quot;&gt;Snacks&lt;/font&gt;" style="text;html=1;align=left;verticalAlign=middle;whiteSpace=wrap;rounded=0;fontSize=16;" vertex="1" parent="1">
          <mxGeometry x="30" y="430" width="75" height="30" as="geometry" />
        </mxCell>
        <mxCell id="lBzFIeIKcv9HpjgelgzR-140" value="&lt;font color=&quot;#ffc107&quot;&gt;Add food&lt;/font&gt;" style="shape=rectangle;strokeColor=none;fillColor=none;linkText=;fontSize=17;fontColor=#0000ff;fontStyle=4;html=1;align=left;" vertex="1" parent="1">
          <mxGeometry x="27.5" y="460" width="80" height="30" as="geometry" />
        </mxCell>
        <mxCell id="lBzFIeIKcv9HpjgelgzR-146" value="" style="html=1;shadow=0;dashed=0;shape=mxgraph.bootstrap.rrect;rSize=5;strokeColor=none;fillColor=#f6f6f6;whiteSpace=wrap;" vertex="1" parent="1">
          <mxGeometry x="360" y="195" width="410" height="10" as="geometry" />
        </mxCell>
        <mxCell id="lBzFIeIKcv9HpjgelgzR-147" value="" style="html=1;shadow=0;dashed=0;shape=mxgraph.bootstrap.leftButtonStriped;fillColor=#1c2839;fontColor=#FFFFFF;whiteSpace=wrap;" vertex="1" parent="lBzFIeIKcv9HpjgelgzR-146">
          <mxGeometry width="256.25" height="10" as="geometry" />
        </mxCell>
        <mxCell id="lBzFIeIKcv9HpjgelgzR-148" value="&lt;font color=&quot;#ffffff&quot;&gt;Protein&amp;nbsp; &amp;nbsp; &amp;nbsp; &amp;nbsp; &amp;nbsp; &amp;nbsp; &amp;nbsp; &amp;nbsp; &amp;nbsp; &amp;nbsp; &amp;nbsp; &amp;nbsp; &amp;nbsp; &amp;nbsp; &amp;nbsp; &amp;nbsp; &amp;nbsp; &amp;nbsp; &amp;nbsp; &amp;nbsp; &amp;nbsp; &amp;nbsp; &amp;nbsp; &amp;nbsp; &amp;nbsp; &amp;nbsp; &amp;nbsp; &amp;nbsp; &amp;nbsp; &amp;nbsp; &amp;nbsp; &amp;nbsp; &amp;nbsp; &amp;nbsp; &amp;nbsp; &amp;nbsp; &amp;nbsp;50&lt;/font&gt;" style="text;html=1;align=left;verticalAlign=middle;whiteSpace=wrap;rounded=0;fontSize=16;" vertex="1" parent="1">
          <mxGeometry x="370" y="165" width="403.5" height="30" as="geometry" />
        </mxCell>
        <mxCell id="lBzFIeIKcv9HpjgelgzR-149" value="&lt;font color=&quot;#ffffff&quot;&gt;Total(g)&lt;/font&gt;" style="text;html=1;align=center;verticalAlign=middle;whiteSpace=wrap;rounded=0;fontSize=16;" vertex="1" parent="1">
          <mxGeometry x="715" y="120" width="75" height="30" as="geometry" />
        </mxCell>
        <mxCell id="lBzFIeIKcv9HpjgelgzR-150" value="" style="html=1;shadow=0;dashed=0;shape=mxgraph.bootstrap.rrect;rSize=5;strokeColor=none;fillColor=#f6f6f6;whiteSpace=wrap;" vertex="1" parent="1">
          <mxGeometry x="360" y="255" width="410" height="10" as="geometry" />
        </mxCell>
        <mxCell id="lBzFIeIKcv9HpjgelgzR-151" value="" style="html=1;shadow=0;dashed=0;shape=mxgraph.bootstrap.leftButtonStriped;fillColor=#1c2839;fontColor=#FFFFFF;whiteSpace=wrap;" vertex="1" parent="lBzFIeIKcv9HpjgelgzR-150">
          <mxGeometry width="380" height="10" as="geometry" />
        </mxCell>
        <mxCell id="lBzFIeIKcv9HpjgelgzR-152" value="&lt;font color=&quot;#ffffff&quot;&gt;Carbohydrates&amp;nbsp; &amp;nbsp; &amp;nbsp; &amp;nbsp; &amp;nbsp; &amp;nbsp; &amp;nbsp; &amp;nbsp; &amp;nbsp; &amp;nbsp; &amp;nbsp; &amp;nbsp; &amp;nbsp; &amp;nbsp; &amp;nbsp; &amp;nbsp; &amp;nbsp; &amp;nbsp; &amp;nbsp; &amp;nbsp; &amp;nbsp; &amp;nbsp; &amp;nbsp; &amp;nbsp; &amp;nbsp; &amp;nbsp; &amp;nbsp; &amp;nbsp; &amp;nbsp; &amp;nbsp; &amp;nbsp;50&lt;/font&gt;" style="text;html=1;align=left;verticalAlign=middle;whiteSpace=wrap;rounded=0;fontSize=16;" vertex="1" parent="1">
          <mxGeometry x="370" y="225" width="403.5" height="30" as="geometry" />
        </mxCell>
        <mxCell id="lBzFIeIKcv9HpjgelgzR-153" value="" style="html=1;shadow=0;dashed=0;shape=mxgraph.bootstrap.rrect;rSize=5;strokeColor=none;fillColor=#f6f6f6;whiteSpace=wrap;" vertex="1" parent="1">
          <mxGeometry x="356.5" y="320" width="410" height="10" as="geometry" />
        </mxCell>
        <mxCell id="lBzFIeIKcv9HpjgelgzR-154" value="" style="html=1;shadow=0;dashed=0;shape=mxgraph.bootstrap.leftButtonStriped;fillColor=#1c2839;fontColor=#FFFFFF;whiteSpace=wrap;" vertex="1" parent="lBzFIeIKcv9HpjgelgzR-153">
          <mxGeometry width="160" height="10" as="geometry" />
        </mxCell>
        <mxCell id="lBzFIeIKcv9HpjgelgzR-155" value="&lt;font color=&quot;#ffffff&quot;&gt;Fats&amp;nbsp; &amp;nbsp; &amp;nbsp; &amp;nbsp; &amp;nbsp; &amp;nbsp; &amp;nbsp; &amp;nbsp; &amp;nbsp; &amp;nbsp; &amp;nbsp; &amp;nbsp; &amp;nbsp; &amp;nbsp; &amp;nbsp; &amp;nbsp; &amp;nbsp; &amp;nbsp; &amp;nbsp; &amp;nbsp; &amp;nbsp; &amp;nbsp; &amp;nbsp; &amp;nbsp; &amp;nbsp; &amp;nbsp; &amp;nbsp; &amp;nbsp; &amp;nbsp; &amp;nbsp; &amp;nbsp; &amp;nbsp; &amp;nbsp; &amp;nbsp; &amp;nbsp; &amp;nbsp; &amp;nbsp; &amp;nbsp; &amp;nbsp; 50&lt;/font&gt;" style="text;html=1;align=left;verticalAlign=middle;whiteSpace=wrap;rounded=0;fontSize=16;" vertex="1" parent="1">
          <mxGeometry x="366.5" y="290" width="403.5" height="30" as="geometry" />
        </mxCell>
        <mxCell id="lBzFIeIKcv9HpjgelgzR-157" value="&lt;font color=&quot;#ffffff&quot;&gt;Vitamins &amp;amp; Minerals&lt;/font&gt;" style="text;html=1;align=left;verticalAlign=middle;whiteSpace=wrap;rounded=0;fontSize=16;" vertex="1" parent="1">
          <mxGeometry x="370" y="360" width="150" height="30" as="geometry" />
        </mxCell>
        <mxCell id="lBzFIeIKcv9HpjgelgzR-158" value="" style="line;strokeWidth=1;strokeColor=#FFFFFF;" vertex="1" parent="1">
          <mxGeometry x="370" y="390" width="205" height="10" as="geometry" />
        </mxCell>
        <mxCell id="lBzFIeIKcv9HpjgelgzR-160" value="" style="ellipse;whiteSpace=wrap;html=1;aspect=fixed;" vertex="1" parent="1">
          <mxGeometry x="370" y="410" width="10" height="10" as="geometry" />
        </mxCell>
        <mxCell id="lBzFIeIKcv9HpjgelgzR-161" value="" style="ellipse;whiteSpace=wrap;html=1;aspect=fixed;" vertex="1" parent="1">
          <mxGeometry x="370" y="440" width="10" height="10" as="geometry" />
        </mxCell>
        <mxCell id="lBzFIeIKcv9HpjgelgzR-163" value="" style="ellipse;whiteSpace=wrap;html=1;aspect=fixed;" vertex="1" parent="1">
          <mxGeometry x="370" y="470" width="10" height="10" as="geometry" />
        </mxCell>
      </root>
    </mxGraphModel>
  </diagram>
</mxfile>
